<?xml version="1.0" encoding="UTF-8" standalone="no"?> <svg width="512" height="512" viewBox="0 0 512 512" fill="none" xmlns="http://www.w3.org/2000/svg">
<path d="M495.151 228.429V228.422L479.151 196.422C478.487 195.094 477.466 193.977 476.203 193.196C474.94 192.415 473.485 192.001 472 192H347.1L343.59 181.47C343.059 179.877 342.04 178.492 340.678 177.51C339.316 176.528 337.679 176 336 176H264C264.01 167.516 267.384 159.382 273.383 153.383C279.382 147.384 287.516 144.01 296 144H328C336.487 144 344.626 140.629 350.627 134.627C356.629 128.626 360 120.487 360 112C360 103.513 356.629 95.3737 350.627 89.3726C344.626 83.3714 336.487 80 328 80H296C287.516 79.9905 279.382 76.616 273.383 70.6169C267.384 64.6178 264.01 56.484 264 48C264 45.8783 263.157 43.8434 261.657 42.3431C260.157 40.8429 258.122 40 256 40C253.878 40 251.843 40.8429 250.343 42.3431C248.843 43.8434 248 45.8783 248 48C248.014 60.726 253.076 72.9267 262.075 81.9253C271.073 90.924 283.274 95.9857 296 96H328C332.243 96 336.313 97.6857 339.314 100.686C342.314 103.687 344 107.757 344 112C344 116.243 342.314 120.313 339.314 123.314C336.313 126.314 332.243 128 328 128H296C283.274 128.014 271.073 133.076 262.075 142.075C253.076 151.073 248.014 163.274 248 176H176C174.321 176 172.684 176.528 171.322 177.51C169.96 178.492 168.941 179.877 168.41 181.47L164.9 192H40C38.5144 192 37.0582 192.414 35.7944 193.195C34.5307 193.976 33.5094 195.093 32.845 196.422L16.845 228.422C16.835 228.441 16.833 228.459 16.825 228.478C16.2833 229.573 16.001 230.778 16 232V432C16 433.051 16.2069 434.091 16.6089 435.062C17.0109 436.032 17.6001 436.914 18.343 437.657L34.343 453.657C35.0859 454.4 35.9678 454.989 36.9385 455.391C37.9091 455.793 38.9494 456 40 456H206.111L220.422 463.155C221.533 463.711 222.758 464 224 464H288C289.242 464 290.467 463.711 291.578 463.155L305.889 456H464C465.58 456 467.124 455.532 468.438 454.656L492.438 438.656C493.534 437.925 494.432 436.936 495.053 435.775C495.675 434.613 496 433.317 496 432V232C495.999 230.76 495.708 229.537 495.151 228.429V228.429ZM32 240H480V408H32V240ZM467.056 208L475.056 224H357.766L352.433 208H467.056ZM181.766 192H330.234L340.9 224H171.1L181.766 192ZM44.944 208H157.754L153.754 224H36.944L44.944 208ZM480 427.719L461.578 440H304C302.758 440 301.533 440.289 300.422 440.845L286.111 448H225.889L211.578 440.845C210.467 440.289 209.242 440 208 440H43.313L32 428.687V424H480V427.719ZM72 280H48V256H72V280ZM112 280H88V256H112V280ZM152 280H128V256H152V280ZM72 320H48V296H72V320ZM72 360H48V336H72V360ZM112 360H88V336H112V360ZM152 360H128V336H152V360ZM112 320H88V296H112V320ZM152 320H128V296H152V320ZM384 280H360V256H384V280ZM424 280H400V256H424V280ZM440 256H464V280H440V256ZM384 320H360V296H384V320ZM384 360H360V336H384V360ZM424 360H400V336H424V360ZM440 336H464V360H440V336ZM424 320H400V296H424V320ZM440 296H464V320H440V296ZM192 280H168V256H192V280ZM232 280H208V256H232V280ZM272 280H248V256H272V280ZM192 320H168V296H192V320ZM232 320H208V296H232V320ZM272 320H248V296H272V320ZM48 376H168V392H48V376ZM336 336H192C189.878 336 187.843 336.843 186.343 338.343C184.843 339.843 184 341.878 184 344V376C184 378.122 184.843 380.157 186.343 381.657C187.843 383.157 189.878 384 192 384H336C338.122 384 340.157 383.157 341.657 381.657C343.157 380.157 344 378.122 344 376V344C344 341.878 343.157 339.843 341.657 338.343C340.157 336.843 338.122 336 336 336ZM328 368H200V352H328V368ZM360 376H464V392H360V376ZM317 256C310.671 256 304.484 257.877 299.222 261.393C293.959 264.909 289.858 269.907 287.436 275.754C285.014 281.601 284.38 288.035 285.615 294.243C286.85 300.45 289.897 306.152 294.373 310.627C298.848 315.103 304.55 318.15 310.757 319.385C316.965 320.62 323.399 319.986 329.246 317.564C335.093 315.142 340.091 311.041 343.607 305.778C347.123 300.516 349 294.329 349 288C348.99 279.516 345.616 271.382 339.617 265.383C333.618 259.384 325.484 256.01 317 256V256ZM317 304C314.718 304.009 312.46 303.53 310.378 302.595C308.296 301.659 306.438 300.289 304.929 298.576C303.42 296.864 302.296 294.848 301.63 292.665C300.965 290.481 300.774 288.181 301.071 285.918C301.368 283.655 302.146 281.481 303.352 279.544C304.559 277.606 306.166 275.949 308.065 274.684C309.965 273.418 312.113 272.574 314.366 272.208C316.619 271.841 318.924 271.961 321.127 272.559L311.343 282.343C310.6 283.086 310.011 283.968 309.609 284.938C309.207 285.909 309 286.949 309 288C309 289.051 309.207 290.091 309.609 291.062C310.011 292.032 310.6 292.914 311.343 293.657C312.086 294.4 312.968 294.989 313.938 295.391C314.909 295.793 315.949 296 317 296C318.051 296 319.091 295.793 320.062 295.391C321.032 294.989 321.914 294.4 322.657 293.657L332.441 283.873C333.086 286.242 333.174 288.728 332.7 291.138C332.226 293.547 331.201 295.814 329.707 297.762C328.212 299.71 326.288 301.286 324.084 302.369C321.88 303.451 319.455 304.009 317 304V304Z" fill="url(#paint0_linear_14_70334)"/>
<defs>
<linearGradient id="paint0_linear_14_70334" x1="80.343" y1="499.657" x2="431.657" y2="148.343" gradientUnits="userSpaceOnUse">
<stop stop-color="#41DFD0"/>
<stop offset="1" stop-color="#EE83EF"/>
</linearGradient>
</defs>
</svg>
