<?xml version="1.0" encoding="UTF-8" standalone="no"?> <svg xmlns="http://www.w3.org/2000/svg" width="48" height="32" viewBox="0 0 48 32">
  <defs>
    <style>
      .a {
        fill: #d3d4ed;
      }
    </style>
  </defs>
  <title>18 Keyboard</title>
  <path class="a" d="M43,0H5A5,5,0,0,0,0,5V27a5,5,0,0,0,5,5H43a5,5,0,0,0,5-5V5A5,5,0,0,0,43,0ZM32,6a2,2,0,1,1-2,2A2,2,0,0,1,32,6Zm-4,8a2,2,0,1,1-2,2A2,2,0,0,1,28,14ZM24,6a2,2,0,1,1-2,2A2,2,0,0,1,24,6Zm-4,8a2,2,0,1,1-2,2A2,2,0,0,1,20,14ZM16,6a2,2,0,1,1-2,2A2,2,0,0,1,16,6ZM8,10a2,2,0,1,1,2-2A2,2,0,0,1,8,10Zm4,8a2,2,0,1,1,2-2A2,2,0,0,1,12,18Zm20,8H16a2,2,0,0,1,0-4H32a2,2,0,0,1,0,4Zm4-8a2,2,0,1,1,2-2A2,2,0,0,1,36,18Zm4-8a2,2,0,1,1,2-2A2,2,0,0,1,40,10Z"/>
</svg>
